# xmcd
#
# Track frame offsets:
#	150
#	20992
#	34811
#	53886
#	77985
#	98392
#	108853
#	130904
#	145495
#	161963
#	181326
#	202968
#	220386
#	233746
#	254152
#	277124
#	298219
#	325162
#
# Disc length: 4736 seconds
#
# Revision: 1
# Processed by: cddbd v1.5.1PL0 Copyright (c) Steve Scherf et al.
# Submitted via: audiograbber 1.83.01
#
DISCID=1b127e12
DTITLE=Sting - all this time
DYEAR=2003
DGENRE=Alternative Rock
TTITLE0=Fragile
TTITLE1=A Thousand Years
TTITLE2=Perfect Love Gone Wrong
TTITLE3=All this time
TTITLE4=The Hounds Of Winter
TTITLE5=Don't Stand So Close To Me
TTITLE6=When We Dance
TTITLE7=Dienda
TTITLE8=Roxanne
TTITLE9=If You Love Somebody Set Them
TTITLE10=Brand New Day
TTITLE11=Fields Of Gold
TTITLE12=Moon Over Bourbon Street
TTITLE13=If I Ever Lose My Faith In You
TTITLE14=Every Breath You Take
TTITLE15=Seven Days
TTITLE16=Don´t ask me
TTITLE17=Fragile (Live from Tuscany)
EXTD=
EXTT0=
EXTT1=
EXTT2=
EXTT3=
EXTT4=
EXTT5=
EXTT6=
EXTT7=
EXTT8=
EXTT9=
EXTT10=
EXTT11=
EXTT12=
EXTT13=
EXTT14=
EXTT15=
EXTT16=
EXTT17=
PLAYORDER=
